<svg xmlns="http://www.w3.org/2000/svg" width="16" height="16" viewBox="0 0 24 24" fill="none" stroke="currentColor" stroke-width="1" stroke-linecap="round" stroke-linejoin="round" class="yusdesign grid"><path d="M 3,12 H 21"/><path d="M 16.5,12 12,7.5"/><path d="M 7.5,12 12,7.5"/><path d="M 12,16.543925 16.5,12"/><path d="M 21,16.5 16.5,12"/><path d="M 12,16.5 7.5,12"/><path d="M 3,16.5 7.5,12"/><path d="M 7.5,12 3,7.5"/><path d="M 16.5,12 21,7.5"/><path d="M 7.5,21 12,16.543925"/><path d="M 16.5,21 12,16.543925"/><path d="M 12,7.5 7.5,3"/><path d="M 12,7.5 16.5,3.0439255"/><path d="m 7.5,7.5 h 9"/><path d="m 7.5,16.5 h 9"/><path d="M 7.5,3 H 12"/><path d="m 12,21 h 4.5"/></svg>
